<svg width="25" height="25" viewBox="0 0 25 25" fill="none" xmlns="http://www.w3.org/2000/svg">
<g clip-path="url(#clip0_307_1135)">
<path d="M12.5415 1.91724V23.9172M17.5415 5.91724H10.0415C9.11322 5.91724 8.22298 6.28599 7.5666 6.94236C6.91022 7.59874 6.54147 8.48898 6.54147 9.41724C6.54147 10.3455 6.91022 11.2357 7.5666 11.8921C8.22298 12.5485 9.11322 12.9172 10.0415 12.9172H15.0415C15.9697 12.9172 16.86 13.286 17.5163 13.9424C18.1727 14.5987 18.5415 15.489 18.5415 16.4172C18.5415 17.3455 18.1727 18.2357 17.5163 18.8921C16.86 19.5485 15.9697 19.9172 15.0415 19.9172H6.54147" stroke="#1E1E1E" stroke-width="2.5" stroke-linecap="round" stroke-linejoin="round"/>
</g>
<defs>
<clipPath id="clip0_307_1135">
<rect width="24" height="24" fill="white" transform="translate(0.541473 0.917236)"/>
</clipPath>
</defs>
</svg>
