<svg width="52" height="54" viewBox="0 0 52 54" fill="none" xmlns="http://www.w3.org/2000/svg">
<rect y="0.531494" width="51.5144" height="52.6104" rx="13" fill="#F15A2B"/>
<path d="M35.9706 35.5267C35.4772 35.5368 34.9925 35.3956 34.5817 35.1221C34.276 34.9223 33.9186 34.816 33.5533 34.816C33.1881 34.816 32.8307 34.9223 32.525 35.1221C32.11 35.3863 31.6282 35.5267 31.1363 35.5267C30.6443 35.5267 30.1626 35.3863 29.7476 35.1221C29.4419 34.9221 29.0844 34.8156 28.719 34.8156C28.3537 34.8156 27.9962 34.9221 27.6905 35.1221C27.2755 35.3863 26.7938 35.5267 26.3018 35.5267C25.8099 35.5267 25.3281 35.3863 24.9131 35.1221C24.6076 34.9223 24.2504 34.8158 23.8853 34.8158C23.5202 34.8158 23.163 34.9223 22.8574 35.1221C22.4812 35.3722 22.0421 35.5111 21.5905 35.5231L21.5656 34.8122C21.8992 34.8042 22.2231 34.6987 22.4973 34.5086C22.9122 34.2445 23.3938 34.1041 23.8856 34.1041C24.3775 34.1041 24.8591 34.2445 25.274 34.5086C25.5797 34.7085 25.9371 34.8149 26.3023 34.8149C26.6676 34.8149 27.025 34.7085 27.3307 34.5086C27.7458 34.2442 28.2277 34.1038 28.7198 34.1038C29.2119 34.1038 29.6937 34.2442 30.1088 34.5086C30.4145 34.7085 30.7719 34.8149 31.1372 34.8149C31.5025 34.8149 31.8598 34.7085 32.1656 34.5086C32.5806 34.2445 33.0623 34.1042 33.5542 34.1042C34.0462 34.1042 34.5279 34.2445 34.9429 34.5086C35.2494 34.7089 35.6076 34.8156 35.9738 34.8156C36.3399 34.8156 36.6982 34.7089 37.0047 34.5086C37.415 34.2359 37.8988 34.095 38.3914 34.1048V34.8157C38.0246 34.8057 37.6642 34.9129 37.3626 35.1218C36.9508 35.3956 36.465 35.5369 35.9706 35.5267Z" fill="white"/>
<path d="M16.6364 35.5268C16.1432 35.537 15.6586 35.3958 15.248 35.1222C14.9464 34.9132 14.586 34.8058 14.2192 34.8158V34.1048C14.7126 34.0946 15.1973 34.2358 15.6081 34.5094C15.9094 34.7185 16.2698 34.8259 16.6364 34.8158C17.0033 34.8259 17.3638 34.7184 17.6652 34.509C18.075 34.2356 18.5589 34.0945 19.0515 34.1048C19.5322 34.0941 20.0049 34.2287 20.4077 34.4913L20.049 35.1048C19.7548 34.9068 19.406 34.8058 19.0515 34.8158C18.6862 34.806 18.3273 34.9131 18.0271 35.1215C17.616 35.3958 17.1305 35.5373 16.6364 35.5268Z" fill="white"/>
<path d="M35.9718 33.0379C35.4781 33.048 34.9931 32.9068 34.5819 32.6334C34.2759 32.4334 33.9182 32.3269 33.5526 32.3269C33.1871 32.3269 32.8294 32.4334 32.5234 32.6334C32.1084 32.8975 31.6268 33.0378 31.1349 33.0378C30.643 33.0378 30.1613 32.8975 29.7464 32.6334C29.4408 32.4335 29.0835 32.3271 28.7184 32.3271C28.3532 32.3271 27.9959 32.4335 27.6903 32.6334C27.2754 32.8976 26.7937 33.0379 26.3018 33.0379C25.8099 33.0379 25.3283 32.8976 24.9133 32.6334C24.6077 32.4335 24.2505 32.3271 23.8853 32.3271C23.5201 32.3271 23.1629 32.4335 22.8573 32.6334C22.4467 32.907 21.9621 33.0482 21.4688 33.0379C20.9755 33.0482 20.4909 32.907 20.0803 32.6334C19.779 32.4243 19.4188 32.317 19.0523 32.327C18.6858 32.317 18.3257 32.4244 18.0246 32.6334C17.6146 32.9067 17.1308 33.0478 16.6382 33.0379C16.1448 33.0482 15.6601 32.907 15.2494 32.6334C14.9475 32.4239 14.5865 32.3165 14.2192 32.327V31.616C14.7125 31.6058 15.1971 31.747 15.6077 32.0206C15.9092 32.2296 16.2697 32.337 16.6364 32.327C17.0029 32.3369 17.363 32.2296 17.6641 32.0206C18.0741 31.7473 18.5579 31.6061 19.0505 31.616C19.5441 31.6055 20.0291 31.7467 20.44 32.0206C20.7414 32.2297 21.1017 32.337 21.4684 32.327C21.8351 32.337 22.1954 32.2297 22.4968 32.0206C22.9117 31.7563 23.3934 31.6159 23.8853 31.6159C24.3772 31.6159 24.8589 31.7563 25.2738 32.0206C25.5795 32.2204 25.9368 32.3269 26.302 32.3269C26.6672 32.3269 27.0245 32.2204 27.3302 32.0206C27.7451 31.7563 28.2268 31.6159 28.7187 31.6159C29.2106 31.6159 29.6923 31.7563 30.1072 32.0206C30.4129 32.2204 30.7702 32.3269 31.1354 32.3269C31.5006 32.3269 31.858 32.2204 32.1636 32.0206C32.579 31.7564 33.061 31.6161 33.5532 31.6161C34.0454 31.6161 34.5274 31.7564 34.9427 32.0206C35.249 32.2204 35.6067 32.3268 35.9724 32.3268C36.338 32.3268 36.6958 32.2204 37.002 32.0206C37.4131 31.7472 37.898 31.606 38.3916 31.616V32.327C38.0241 32.3166 37.6628 32.4239 37.3607 32.6334C36.9498 32.9066 36.4652 33.0478 35.9718 33.0379Z" fill="white"/>
<path d="M35.9706 30.5501C35.4773 30.5602 34.9926 30.419 34.5818 30.1456C34.2802 29.9365 33.9198 29.8292 33.553 29.8392C33.2839 29.8299 33.0166 29.8873 32.7749 30.0062L32.4614 29.3664C32.8008 29.2001 33.1752 29.118 33.553 29.1272C34.047 29.1171 34.5322 29.2586 34.9433 29.5328C35.2498 29.7331 35.608 29.8398 35.9742 29.8398C36.3404 29.8398 36.6986 29.7331 37.0051 29.5328C37.4152 29.2599 37.8989 29.1188 38.3914 29.1282V29.8392C38.0247 29.8291 37.6643 29.9364 37.3627 30.1452C36.9509 30.4191 36.4651 30.5604 35.9706 30.5501Z" fill="white"/>
<path d="M31.1327 30.5499C30.6402 30.5602 30.1562 30.4191 29.7464 30.1457C29.4406 29.9457 29.0832 29.8392 28.7178 29.8392C28.3525 29.8392 27.995 29.9457 27.6893 30.1457C27.2743 30.4099 26.7925 30.5502 26.3006 30.5502C25.8086 30.5502 25.3269 30.4099 24.9119 30.1457C24.6062 29.9458 24.2488 29.8394 23.8835 29.8394C23.5182 29.8394 23.1609 29.9458 22.8551 30.1457C22.4446 30.4188 21.9603 30.5598 21.4674 30.5499C20.9741 30.5601 20.4895 30.4189 20.0789 30.1453C19.7773 29.9363 19.4169 29.8289 19.0501 29.8389C18.6848 29.8291 18.3258 29.9362 18.0256 30.1446C17.615 30.4187 17.1301 30.5601 16.6364 30.5499C16.1432 30.5601 15.6586 30.4189 15.248 30.1453C14.9464 29.9363 14.586 29.8289 14.2192 29.8389V29.128C14.7126 29.1177 15.1973 29.2589 15.6081 29.5325C15.9094 29.7416 16.2698 29.849 16.6364 29.8389C17.0033 29.849 17.3638 29.7415 17.6652 29.5321C18.075 29.2587 18.559 29.1176 19.0515 29.128C19.5448 29.1178 20.0294 29.259 20.44 29.5325C20.7414 29.7416 21.1017 29.849 21.4684 29.8389C21.8352 29.8489 22.1956 29.7416 22.4972 29.5325C22.9122 29.2683 23.3939 29.128 23.8858 29.128C24.3778 29.128 24.8595 29.2683 25.2745 29.5325C25.5802 29.7324 25.9376 29.8388 26.3029 29.8388C26.6682 29.8388 27.0255 29.7324 27.3313 29.5325C27.7463 29.2681 28.2282 29.1277 28.7203 29.1277C29.2124 29.1277 29.6943 29.2681 30.1093 29.5325C30.4225 29.7431 30.7939 29.8502 31.1711 29.8386C31.1986 29.8389 31.226 29.8375 31.2533 29.8343L31.3478 30.5389C31.2764 30.5472 31.2046 30.5509 31.1327 30.5499Z" fill="white"/>
<path d="M35.9718 28.0614C35.4781 28.0714 34.9931 27.9303 34.5819 27.6568C34.2759 27.4568 33.9182 27.3503 33.5526 27.3503C33.1871 27.3503 32.8294 27.4568 32.5234 27.6568C32.1084 27.921 31.6268 28.0613 31.1349 28.0613C30.643 28.0613 30.1613 27.921 29.7464 27.6568C29.4408 27.457 29.0835 27.3505 28.7184 27.3505C28.3532 27.3505 27.9959 27.457 27.6903 27.6568C27.2754 27.921 26.7937 28.0614 26.3018 28.0614C25.8099 28.0614 25.3283 27.921 24.9133 27.6568C24.6077 27.457 24.2505 27.3505 23.8853 27.3505C23.5201 27.3505 23.1629 27.457 22.8573 27.6568C22.4467 27.9304 21.9621 28.0716 21.4688 28.0614C20.9755 28.0716 20.4909 27.9304 20.0803 27.6568C19.779 27.4478 19.4188 27.3404 19.0523 27.3504C18.6858 27.3405 18.3257 27.4478 18.0246 27.6568C17.6146 27.9301 17.1308 28.0713 16.6382 28.0614C16.1448 28.0716 15.6601 27.9304 15.2494 27.6568C14.9475 27.4474 14.5865 27.34 14.2192 27.3504V26.6395C14.7125 26.6293 15.1971 26.7704 15.6077 27.044C15.9092 27.253 16.2697 27.3604 16.6364 27.3504C17.0029 27.3604 17.363 27.253 17.6641 27.044C18.0741 26.7707 18.5579 26.6295 19.0505 26.6395C19.5441 26.629 20.0291 26.7702 20.44 27.044C20.7414 27.2531 21.1017 27.3605 21.4684 27.3504C21.8351 27.3605 22.1954 27.2531 22.4968 27.044C22.9117 26.7797 23.3934 26.6394 23.8853 26.6394C24.3772 26.6394 24.8589 26.7797 25.2738 27.044C25.5795 27.2439 25.9368 27.3503 26.302 27.3503C26.6672 27.3503 27.0245 27.2439 27.3302 27.044C27.7451 26.7797 28.2268 26.6394 28.7187 26.6394C29.2106 26.6394 29.6923 26.7797 30.1072 27.044C30.4129 27.2439 30.7702 27.3503 31.1354 27.3503C31.5006 27.3503 31.858 27.2439 32.1636 27.044C32.579 26.7798 33.061 26.6395 33.5532 26.6395C34.0454 26.6395 34.5274 26.7798 34.9427 27.044C35.249 27.2438 35.6067 27.3502 35.9724 27.3502C36.338 27.3502 36.6958 27.2438 37.002 27.044C37.4131 26.7706 37.898 26.6295 38.3916 26.6395V27.3504C38.0241 27.34 37.6628 27.4474 37.3607 27.6568C36.9498 27.9301 36.4652 28.0712 35.9718 28.0614Z" fill="white"/>
<path d="M30.9061 27.7599L30.2353 27.5246C30.4081 27.0283 30.4786 26.5021 30.4428 25.9778C30.4069 25.4534 30.2654 24.9418 30.0266 24.4736L27.5849 19.6921C27.5608 19.6448 27.5475 19.5928 27.5461 19.5398C27.5447 19.4868 27.5552 19.4342 27.5767 19.3858C27.5983 19.3373 27.6304 19.2943 27.6708 19.2599C27.7111 19.2255 27.7587 19.2006 27.8099 19.1869L32.676 17.8895C32.8346 17.848 32.9703 17.7456 33.0538 17.6045C33.1372 17.4634 33.1616 17.2951 33.1216 17.1362C33.0816 16.9772 32.9804 16.8405 32.8401 16.7558C32.6998 16.671 32.5317 16.6451 32.3724 16.6837L26.4829 18.0914C26.357 18.1211 26.2396 18.1794 26.1399 18.2618C26.0402 18.3442 25.9607 18.4485 25.9078 18.5665C25.8548 18.6846 25.8297 18.8132 25.8344 18.9425C25.8392 19.0718 25.8736 19.1982 25.9351 19.3121L27.684 22.5611C27.7284 22.6437 27.7383 22.7404 27.7117 22.8303C27.6851 22.9202 27.624 22.9959 27.5418 23.041L25.2846 24.2852L24.9415 23.6624L26.8903 22.5881L25.3098 19.6491C25.1968 19.4392 25.1335 19.2062 25.1248 18.9681C25.1162 18.7299 25.1625 18.4929 25.2601 18.2755C25.3577 18.058 25.5039 17.8659 25.6876 17.7141C25.8713 17.5622 26.0875 17.4546 26.3194 17.3996L32.206 15.9923C32.5487 15.9057 32.9118 15.9588 33.2154 16.1399C33.5189 16.321 33.7381 16.6152 33.8247 16.9579C33.9113 17.3006 33.8582 17.6637 33.6771 17.9672C33.496 18.2708 33.2018 18.49 32.8591 18.5766L28.4177 19.7603L30.6601 24.1497C30.9424 24.7038 31.1098 25.3093 31.1521 25.9297C31.1943 26.5501 31.1107 27.1727 30.9061 27.7599Z" fill="white"/>
<path d="M23.6992 24.3528L19.3794 26.7332L19.7224 27.3555L24.0422 24.9752L23.6992 24.3528Z" fill="white"/>
<path d="M34.1256 25.3954C33.5983 25.3954 33.0828 25.239 32.6444 24.9461C32.206 24.6531 31.8642 24.2367 31.6625 23.7496C31.4607 23.2624 31.4079 22.7263 31.5107 22.2092C31.6136 21.692 31.8675 21.217 32.2404 20.8441C32.6132 20.4712 33.0883 20.2173 33.6055 20.1145C34.1226 20.0116 34.6587 20.0644 35.1458 20.2662C35.633 20.468 36.0494 20.8097 36.3423 21.2481C36.6353 21.6865 36.7917 22.202 36.7917 22.7293C36.7909 23.4362 36.5098 24.1138 36.0099 24.6137C35.5101 25.1135 34.8324 25.3946 34.1256 25.3954ZM34.1256 20.7742C33.7389 20.7742 33.3609 20.8889 33.0394 21.1037C32.7179 21.3185 32.4673 21.6239 32.3193 21.9811C32.1713 22.3384 32.1326 22.7315 32.208 23.1107C32.2835 23.49 32.4697 23.8383 32.7431 24.1118C33.0165 24.3852 33.3649 24.5714 33.7442 24.6468C34.1234 24.7223 34.5165 24.6836 34.8738 24.5356C35.231 24.3876 35.5364 24.137 35.7512 23.8155C35.966 23.494 36.0807 23.116 36.0807 22.7293C36.08 22.211 35.8738 21.7141 35.5073 21.3476C35.1408 20.981 34.6439 20.7748 34.1256 20.7742Z" fill="white"/>
</svg>
