<svg width="52" height="54" viewBox="0 0 52 54" fill="none" xmlns="http://www.w3.org/2000/svg">
<rect y="0.678711" width="51.5144" height="52.6104" rx="13" fill="#006380"/>
<path d="M18.0849 29.313C17.7597 29.313 17.4418 29.4094 17.1715 29.5901C16.9011 29.7707 16.6904 30.0275 16.5659 30.3279C16.4415 30.6283 16.4089 30.9589 16.4724 31.2778C16.5358 31.5967 16.6924 31.8897 16.9223 32.1196C17.1522 32.3495 17.4452 32.5061 17.7641 32.5696C18.083 32.633 18.4136 32.6004 18.714 32.476C19.0144 32.3516 19.2712 32.1408 19.4519 31.8705C19.6325 31.6001 19.7289 31.2822 19.7289 30.9571C19.7289 30.521 19.5557 30.1029 19.2474 29.7945C18.9391 29.4862 18.5209 29.313 18.0849 29.313ZM18.0849 31.7791C17.9223 31.7791 17.7633 31.7309 17.6282 31.6406C17.493 31.5502 17.3876 31.4219 17.3254 31.2716C17.2632 31.1214 17.2469 30.9562 17.2786 30.7967C17.3103 30.6372 17.3886 30.4908 17.5036 30.3758C17.6186 30.2608 17.765 30.1825 17.9245 30.1508C18.0839 30.1191 18.2492 30.1354 18.3994 30.1976C18.5496 30.2598 18.678 30.3652 18.7684 30.5004C18.8587 30.6356 18.9069 30.7945 18.9069 30.9571C18.9069 31.1751 18.8203 31.3842 18.6661 31.5383C18.512 31.6925 18.3029 31.7791 18.0849 31.7791Z" fill="white"/>
<path d="M34.5256 29.313C34.2004 29.313 33.8826 29.4094 33.6122 29.5901C33.3418 29.7707 33.1311 30.0275 33.0067 30.3279C32.8822 30.6283 32.8497 30.9589 32.9131 31.2778C32.9766 31.5967 33.1331 31.8897 33.3631 32.1196C33.593 32.3495 33.8859 32.5061 34.2049 32.5696C34.5238 32.633 34.8543 32.6004 35.1548 32.476C35.4552 32.3516 35.7119 32.1408 35.8926 31.8705C36.0733 31.6001 36.1697 31.2822 36.1697 30.9571C36.1697 30.521 35.9965 30.1029 35.6881 29.7945C35.3798 29.4862 34.9616 29.313 34.5256 29.313ZM34.5256 31.7791C34.363 31.7791 34.2041 31.7309 34.0689 31.6406C33.9337 31.5502 33.8284 31.4219 33.7661 31.2716C33.7039 31.1214 33.6876 30.9562 33.7194 30.7967C33.7511 30.6372 33.8294 30.4908 33.9443 30.3758C34.0593 30.2608 34.2058 30.1825 34.3652 30.1508C34.5247 30.1191 34.69 30.1354 34.8402 30.1976C34.9904 30.2598 35.1188 30.3652 35.2091 30.5004C35.2994 30.6356 35.3476 30.7945 35.3476 30.9571C35.3476 31.1751 35.261 31.3842 35.1069 31.5383C34.9527 31.6925 34.7436 31.7791 34.5256 31.7791Z" fill="white"/>
<path d="M22.6061 31.3682H30.0044V32.1902H22.6061V31.3682Z" fill="white"/>
<path d="M22.6061 29.7241H30.0044V30.5462H22.6061V29.7241Z" fill="white"/>
<path d="M25.0722 23.5588H27.5383V24.3809H25.0722V23.5588Z" fill="white"/>
<path d="M38.6358 27.2579V26.4358C38.6348 26.1091 38.5046 25.796 38.2735 25.565C38.0425 25.334 37.7294 25.2038 37.4027 25.2028H35.7751L34.9243 22.2188L34.6694 21.2036C34.6026 20.937 34.4486 20.7004 34.2319 20.5314C34.0152 20.3623 33.7482 20.2705 33.4734 20.2706H30.0044V18.6265C30.0037 18.4087 29.9169 18.2 29.7629 18.0459C29.6089 17.8919 29.4002 17.8051 29.1823 17.8044H23.4281C23.2103 17.8051 23.0015 17.8919 22.8475 18.0459C22.6935 18.2 22.6067 18.4087 22.606 18.6265V20.2706H19.137C18.8622 20.2705 18.5953 20.3623 18.3786 20.5314C18.1619 20.7004 18.0078 20.937 17.941 21.2036L17.6903 22.2147L16.8353 25.2028H15.2077C14.881 25.2038 14.5679 25.334 14.3369 25.565C14.1058 25.796 13.9756 26.1091 13.9746 26.4358V27.2579C13.9753 27.4661 14.0288 27.6707 14.1302 27.8526C14.2316 28.0345 14.3774 28.1877 14.5542 28.2978C14.1826 28.6795 13.9747 29.1912 13.9746 29.724V34.6562C13.9752 34.8286 14.0121 34.999 14.0829 35.1562C14.1537 35.3135 14.2569 35.454 14.3857 35.5687V37.1223C14.3866 37.4491 14.5169 37.7621 14.7479 37.9932C14.9789 38.2242 15.292 38.3544 15.6187 38.3554H18.9069C19.2336 38.3544 19.5467 38.2242 19.7777 37.9932C20.0087 37.7621 20.1389 37.4491 20.1399 37.1223V35.8893H32.4705V37.1223C32.4715 37.4491 32.6017 37.7621 32.8327 37.9932C33.0638 38.2242 33.3768 38.3544 33.7035 38.3554H36.9917C37.3184 38.3544 37.6315 38.2242 37.8625 37.9932C38.0936 37.7621 38.2238 37.4491 38.2248 37.1223V35.5687C38.3535 35.454 38.4567 35.3135 38.5275 35.1562C38.5983 34.999 38.6352 34.8286 38.6358 34.6562V29.724C38.6357 29.1912 38.4278 28.6795 38.0562 28.2978C38.233 28.1877 38.3789 28.0345 38.4802 27.8526C38.5816 27.6707 38.6351 27.4661 38.6358 27.2579ZM23.4281 18.6265H29.1823V20.2706H23.4281V18.6265ZM18.7383 21.405C18.7604 21.3159 18.8116 21.2367 18.8839 21.1801C18.9561 21.1235 19.0452 21.0927 19.137 21.0926H33.4734C33.5652 21.0927 33.6543 21.1235 33.7266 21.1801C33.7988 21.2367 33.85 21.3159 33.8721 21.405L33.9995 21.9146H18.6109L18.7383 21.405ZM18.3931 22.7367H34.2173L35.623 27.6689H23.8021C23.7055 27.0945 23.4085 26.5729 22.9638 26.1968C22.5191 25.8206 21.9554 25.6142 21.373 25.6142C20.7905 25.6142 20.2269 25.8206 19.7822 26.1968C19.3375 26.5729 19.0405 27.0945 18.9439 27.6689H16.9874L18.3931 22.7367ZM22.9595 27.6689H19.7864C19.8762 27.3162 20.0809 27.0035 20.3682 26.7801C20.6555 26.5568 21.0091 26.4355 21.373 26.4355C21.7369 26.4355 22.0904 26.5568 22.3778 26.7801C22.6651 27.0035 22.8698 27.3162 22.9595 27.6689ZM14.7967 26.4358C14.7967 26.3268 14.84 26.2223 14.9171 26.1452C14.9941 26.0681 15.0987 26.0248 15.2077 26.0248H16.6011L16.1325 27.6689H15.2077C15.0987 27.6689 14.9941 27.6256 14.9171 27.5485C14.84 27.4714 14.7967 27.3669 14.7967 27.2579V26.4358ZM19.3179 37.1223C19.3179 37.2313 19.2746 37.3359 19.1975 37.413C19.1204 37.49 19.0159 37.5333 18.9069 37.5333H15.6187C15.5097 37.5333 15.4052 37.49 15.3281 37.413C15.251 37.3359 15.2077 37.2313 15.2077 37.1223V35.8893H19.3179V37.1223ZM37.4027 37.1223C37.4027 37.2313 37.3594 37.3359 37.2823 37.413C37.2052 37.49 37.1007 37.5333 36.9917 37.5333H33.7035C33.5945 37.5333 33.49 37.49 33.4129 37.413C33.3358 37.3359 33.2925 37.2313 33.2925 37.1223V35.8893H37.4027V37.1223ZM37.8137 34.6562C37.8137 34.7652 37.7704 34.8698 37.6933 34.9469C37.6163 35.0239 37.5117 35.0672 37.4027 35.0672H15.2077C15.0987 35.0672 14.9941 35.0239 14.9171 34.9469C14.84 34.8698 14.7967 34.7652 14.7967 34.6562V34.2452H37.8137V34.6562ZM37.8137 33.4232H14.7967V29.724C14.7977 29.3973 14.9279 29.0842 15.1589 28.8532C15.3899 28.6221 15.703 28.4919 16.0297 28.4909H36.5807C36.9074 28.4919 37.2205 28.6221 37.4515 28.8532C37.6825 29.0842 37.8128 29.3973 37.8137 29.724V33.4232ZM37.8137 27.2579C37.8137 27.3669 37.7704 27.4714 37.6933 27.5485C37.6163 27.6256 37.5117 27.6689 37.4027 27.6689H36.4779L36.0094 26.0248H37.4027C37.5117 26.0248 37.6163 26.0681 37.6933 26.1452C37.7704 26.2223 37.8137 26.3268 37.8137 26.4358V27.2579Z" fill="white"/>
</svg>
