<svg width="52" height="53" viewBox="0 0 52 53" fill="none" xmlns="http://www.w3.org/2000/svg">
<rect y="0.384277" width="51.5144" height="52.6104" rx="13" fill="#F0BB1F"/>
<path d="M14.8456 19.5382C14.5205 19.5382 14.2546 19.2722 14.2486 18.9472V15.2297C14.2486 14.8988 14.5146 14.6328 14.8456 14.6328H18.563C18.8881 14.6328 19.154 14.8988 19.154 15.2297V16.524H33.4564V15.2297C33.4564 14.9047 33.7223 14.6387 34.0474 14.6328H37.7648C38.0899 14.6328 38.3558 14.8988 38.3618 15.2297V18.9472C38.3618 19.2722 38.0958 19.5382 37.7648 19.5382H36.4705V33.8406H37.7648C38.0899 33.8406 38.3558 34.1065 38.3618 34.4316V38.149C38.3618 38.4741 38.0958 38.74 37.7648 38.7459H34.0474C33.7223 38.7459 33.4564 38.48 33.4564 38.149V36.8547H19.154V38.149C19.154 38.4741 18.8881 38.74 18.563 38.7459H14.8456C14.5205 38.7459 14.2546 38.48 14.2486 38.149V34.4316C14.2486 34.1065 14.5146 33.8406 14.8456 33.8406H16.1399V19.5382H14.8456ZM37.1797 18.3562V15.8148H34.6384V18.3562H37.1797ZM34.6384 37.5639H37.1797V35.0226H34.6384V37.5639ZM19.154 34.4316V35.6727H33.4564V34.4316C33.4564 34.1065 33.7223 33.8406 34.0474 33.8406H35.2885V19.5382H34.0474C33.7223 19.5382 33.4564 19.2722 33.4564 18.9472V17.7061H19.154V18.9472C19.154 19.2722 18.8881 19.5382 18.563 19.5382H17.3219V33.8406H18.563C18.8881 33.8406 19.154 34.1065 19.154 34.4316ZM15.4307 35.0226V37.5639H17.972V35.0226H15.4307ZM17.972 18.3562V15.8148H15.4307V18.3562H17.972Z" fill="white"/>
</svg>
