<svg width="23" height="21" viewBox="0 0 23 21" fill="none" xmlns="http://www.w3.org/2000/svg">
<path d="M21.2428 2.0157C20.686 1.45515 20.0249 1.01048 19.2972 0.707095C18.5696 0.403711 17.7897 0.247559 17.002 0.247559C16.2144 0.247559 15.4345 0.403711 14.7068 0.707095C13.9792 1.01048 13.3181 1.45515 12.7613 2.0157L11.6057 3.17851L10.4501 2.0157C9.32535 0.883955 7.7999 0.248145 6.20929 0.248145C4.61869 0.248145 3.09323 0.883955 1.96851 2.0157C0.843779 3.14745 0.211914 4.68243 0.211914 6.28297C0.211914 7.8835 0.843779 9.41848 1.96851 10.5502L3.12409 11.713L11.6057 20.2476L20.0872 11.713L21.2428 10.5502C21.7999 9.98994 22.2418 9.3247 22.5433 8.59251C22.8448 7.86031 23 7.07552 23 6.28297C23 5.49041 22.8448 4.70562 22.5433 3.97343C22.2418 3.24124 21.7999 2.57599 21.2428 2.0157Z" fill="#F94347"/>
</svg>
