<svg width="16" height="16" viewBox="0 0 16 16" fill="none" xmlns="http://www.w3.org/2000/svg">
<path d="M4.4102 8.00078H4.29971L4.21422 7.87604V7.79284H4.16091L4.10566 7.68217L3.98092 7.61285H3.78687V7.72371L3.93938 7.86215L3.98098 7.93847V8.07009L4.21428 8.23643H4.41008C4.41008 8.23643 4.38255 8.20872 4.4794 8.23643L4.5766 8.26415H4.78436L4.8396 8.13252L4.59061 8.00078L4.4102 8.00078Z" fill="black"/>
<path d="M9.52369 3.05236H9.87025V2.90691H9.92592V2.83059L9.85661 2.76128H9.80094L9.6346 2.69214C9.6346 2.69214 9.62095 2.74757 9.57935 2.69214C9.53775 2.63672 9.50304 2.63672 9.50304 2.63672H9.24686C9.1633 2.69214 9.02486 2.63672 9.08052 2.76128V2.88602H9.13576L9.2605 2.96922C9.2605 2.96922 9.44091 3.02464 9.48209 3.03835C9.52369 3.05236 9.52369 3.05236 9.52369 3.05236Z" fill="black"/>
<path d="M9.92579 4.26755V4.56315H10.8266C10.8266 4.56315 10.7526 4.48937 10.8266 4.4337L10.9002 4.37828V3.75H10.6233L10.5864 3.91634L10.4941 4.04561L10.4128 4.15652H10.2538C10.2538 4.15652 10.1786 4.14813 10.1218 4.14131L10.0226 4.26726L9.92578 4.26713L9.92579 4.26755Z" fill="black"/>
<path d="M10.1218 4.14217L10.1242 4.13885C10.0178 4.12913 10.0586 4.13474 10.1218 4.14217Z" fill="black"/>
<path d="M8 0C3.5887 0 0 3.58886 0 8C0 12.4111 3.5887 15.9998 8 15.9998C12.4113 15.9998 16 12.4113 16 8C16 3.58886 12.4113 0 8 0ZM15.5343 7.43321C15.5454 7.58198 15.5526 7.7317 15.5548 7.88265L15.52 7.83387L15.4277 7.72296L15.3168 7.61168H15.132L15.206 7.42735L15.3349 7.39028L15.5343 7.43321ZM13.4324 6.07858V6.20785L13.5987 6.41126L13.6356 6.52193V6.74376L13.4507 6.83632H13.2662L13.1735 6.74376L13.0442 6.68834L12.9518 6.6698L12.8594 6.65145C12.7667 6.63291 12.6193 6.63291 12.6193 6.63291L12.5453 6.65145L12.4344 6.70687L12.2868 6.7623V6.83608H12.2124L12.0649 6.83614L11.9356 6.76236L11.7507 6.61455V6.54077H11.6398L11.4922 6.39297H11.3998L11.3258 6.30041L11.0673 6.20803H10.8082L10.9005 5.94932L11.0302 5.85695L11.1407 5.72768L11.2703 5.56133L11.3627 5.50591L11.455 5.43213L11.5843 5.39524L11.6952 5.48762L11.8245 5.59853L11.9169 5.67231L11.9909 5.74609L12.1018 5.83865L12.1202 5.94932L12.0835 6.0653L12.0466 6.1895L12.1018 6.28188L12.2123 6.26334L12.305 6.22645L12.3974 6.06518H12.4527L12.4714 5.94919L12.4161 5.87541L12.3609 5.78304L12.3052 5.67212L12.2683 5.61688C12.2314 5.56121 12.1391 5.432 12.1391 5.432L12.199 5.43689L12.3611 5.45036L12.4347 5.48725H12.5548V5.57963L12.7057 5.70889C12.7057 5.70889 12.8041 5.87524 12.8597 5.9123C12.915 5.94919 12.8966 6.06518 12.8966 6.06518H12.9702L13.1182 6.17102L13.0998 6.06518L13.1551 5.96755L13.192 5.87517C13.2289 5.78279 13.192 5.74572 13.192 5.74572V5.61645L13.2289 5.54243L13.469 5.30231C13.469 5.30231 13.5795 5.28378 13.6353 5.30231C13.6906 5.32067 13.6906 5.37609 13.6906 5.37609H13.7646L13.7829 5.46847H14.0973L14.2082 5.57938H14.3006V5.76407H14.0786V5.85645H13.8757L13.617 5.85639L13.5061 5.91182C13.3955 5.96748 13.4324 6.07858 13.4324 6.07858ZM3.12207 2.24891L3.12599 2.2302C3.25834 2.11814 3.39407 2.01054 3.53401 1.90766L3.50998 2.02715L3.45474 2.20737L3.37154 2.37372L3.12224 2.40143L3.05293 2.38754L3.12207 2.24891ZM0.441594 7.99983C0.441594 7.12479 0.592899 6.28508 0.867607 5.50267V5.81917L0.950807 6.11478V6.55831L1.03437 6.72465V7.09422H1.10797V7.18659L1.20034 7.29751L1.36711 6.85409V7.48237L1.64393 7.64871H1.7732L1.92118 8.07376L2.06917 8.22157L2.49398 8.29535H2.64196V8.35077H2.75287L2.99281 8.64638L3.17768 8.81272L3.45494 8.92364H3.52896L3.60299 9.01601L3.76933 9.14546L3.87982 9.23784V9.31162L3.76933 9.99516L3.75061 10.1058L3.67701 10.3459L3.56574 10.6601L3.76939 10.8264H3.87988V10.9188L4.02787 11.0666C4.02787 11.0666 4.21274 11.4545 4.23109 11.5286C4.24981 11.6026 4.45309 11.9167 4.45309 11.9167C4.45309 11.9167 4.37907 11.9905 4.45309 12.0645C4.52669 12.1383 4.54547 12.2123 4.54547 12.2123L4.63785 12.5079V12.7666C4.6562 12.8776 4.63785 13.1177 4.63785 13.1732C4.63785 13.2286 4.63592 13.4873 4.64624 13.5799C4.6562 13.6722 4.64624 13.9125 4.64624 13.9125H4.71187V14.2267C4.71187 14.2267 4.80425 14.2636 4.80425 14.3745V14.4851V14.6884L4.88546 14.8832C2.26712 13.6938 0.441544 11.0569 0.441544 7.99978L0.441594 7.99983ZM8 15.5578C7.02732 15.5578 6.09761 15.3711 5.24302 15.0349C5.24827 15.021 5.25533 15.0047 5.26548 14.9839C5.33908 14.8361 5.33908 14.8361 5.33908 14.8361C5.33908 14.8361 5.4131 14.7621 5.43145 14.6144C5.45017 14.4666 5.35785 14.4666 5.43145 14.3371C5.50548 14.2078 5.54273 14.1153 5.54273 14.1153C5.54273 14.1153 5.4131 14.1153 5.54273 14.0601C5.67157 14.0047 5.9859 13.8012 5.9859 13.8012C5.9859 13.8012 6.13388 13.5611 6.15224 13.4873C6.17096 13.4132 6.15224 13.2285 6.15224 13.2285L6.37424 12.9144L6.70675 12.859C6.70675 12.859 6.78077 12.785 6.83601 12.7481C6.89168 12.7112 7.03967 12.5634 7.03967 12.5634C7.03967 12.5634 7.18729 12.471 7.24254 12.36C7.29778 12.249 7.39052 12.0089 7.40888 11.9165C7.4276 11.8242 7.40888 11.7133 7.40888 11.7133C7.40888 11.7133 7.40695 11.7319 7.41727 11.6208C7.4276 11.5101 7.37 11.3437 7.41727 11.2883C7.46412 11.2328 7.53815 11.1219 7.57564 11.0665C7.61235 11.0111 7.61235 11.0111 7.61235 11.0111V10.7155C7.61235 10.7155 7.74198 10.5862 7.61235 10.5309L7.48308 10.4755L7.40906 10.4386C7.40906 10.4386 7.35381 10.4201 7.29814 10.3832C7.2429 10.3463 7.35381 10.4017 7.2429 10.3463C7.13241 10.2909 7.04003 10.2539 7.04003 10.2539L6.72589 10.0596H6.48578V9.86577L6.44846 9.7365L6.39322 9.62559L5.72823 9.14529C5.72823 9.14529 5.61732 9.16383 5.56189 9.12694C5.50622 9.09005 4.93342 8.88682 4.93342 8.88682L4.80416 8.86829L4.61849 8.86823L4.52611 8.8128L4.4152 8.84969L4.26879 8.92347V8.9789L4.17526 8.97896L3.97204 8.90518L3.84241 8.75737L3.67644 8.60957L3.5837 8.4803L3.50968 8.44341L3.45443 8.36939L3.14065 8.20304L3.25114 7.99982L3.19589 7.79641C3.19589 7.79641 3.08498 7.77788 3.02913 7.75952L2.97389 7.74099H2.80754L2.73352 7.72245H2.51193L2.47504 7.48233L2.51193 7.37142L2.56718 7.22362L2.65956 7.16819L2.9737 7.07582C2.9737 7.07582 3.01059 7.05728 3.14046 7.05728H3.39894L3.50943 7.18673C3.50943 7.18673 3.60217 7.22362 3.67619 7.27929C3.74979 7.33471 3.74979 7.33471 3.82381 7.37166C3.89783 7.40855 3.99015 7.44569 3.99015 7.44569L3.95326 7.261L4.02729 7.00229L4.00893 6.70668L4.26862 6.6329V6.54052L4.39668 6.46674L4.52594 6.33729L4.71082 6.20784L4.72917 6.09693V5.94913L4.74789 5.57956L4.85838 5.52414L5.0985 5.48725H5.19088L5.28362 5.46871L5.35764 5.45017L5.45002 5.43164L5.69013 5.39475L5.76416 5.33932L5.86179 5.26337L5.90707 5.22823L5.79616 5.20052L5.67142 5.18663H5.50507L5.40823 5.07572L5.54667 4.81254H5.63023L5.7435 4.72197L5.83799 4.64644L5.90712 4.88191L6.05964 4.93757C6.1432 4.93757 6.29529 4.97917 6.29529 4.97917H6.3646L6.55866 4.88197V4.81283L6.50299 4.54947L6.48935 4.42473L6.17049 4.07835L6.05958 3.89813L5.96237 3.73178L5.92119 3.64858L5.87959 3.53791L5.69918 3.41317H5.44964L5.2833 3.34404C5.2833 3.34404 5.33854 3.49655 5.22805 3.34404C5.11714 3.19153 5.03399 3.09449 5.03399 3.09449H4.99239L4.93715 3.02536H4.79834V3.10832C4.79834 3.10832 4.77045 3.24695 4.77045 3.28854C4.77045 3.33014 4.7568 3.39946 4.7568 3.39946C4.7568 3.39946 4.7568 3.67653 4.7152 3.73213C4.6736 3.78755 4.65996 3.85687 4.65996 3.85687L4.54904 4.06462L4.39653 4.10622L4.3274 4.0785L4.26823 4.05079L4.03626 3.93988L3.88374 3.71811L3.80079 3.60689L3.77326 3.53776L3.71759 3.46845L3.66234 3.37142V3.24668L3.75919 3.09417L3.8285 3.19119L3.89781 3.02485L3.98101 2.95572L3.99466 2.85869H4.42437L4.47961 2.78938V2.72007L4.54892 2.58162L4.59052 2.45688C4.59052 2.45688 4.60417 2.45688 4.71526 2.37368L4.82575 2.29072L4.88142 2.22141H5.01986L5.03393 2.29072V2.35986L5.13078 2.65093V2.78956L5.11713 2.85887L5.32488 2.91412H5.42173C5.42173 2.91412 5.54647 2.90023 5.61578 2.90023H5.75459H5.83779L5.96217 2.70618L5.94889 2.58144L5.83797 2.41509V2.30442L5.69917 2.22122C5.69917 2.22122 5.72706 2.1658 5.67127 2.06895C5.61603 1.97193 5.42197 1.7501 5.42197 1.7501H5.36673L5.22828 1.62536C5.22828 1.62536 5.15897 1.73627 5.02016 1.62536L4.88172 1.51445C4.88172 1.51445 4.84012 1.59764 4.78487 1.51445C4.7292 1.43149 4.61811 1.38989 4.61811 1.38989H4.56287L4.53534 1.4592L4.41017 1.59764V1.66696L4.34086 1.87471L4.26841 1.98562V2.13814L4.18877 2.16585L4.09193 2.19356L4.07786 2.11036L4.00873 2.01334L3.99466 1.91631L3.63855 1.83311C4.45835 1.2515 5.39844 0.828375 6.41393 0.610716L6.32294 0.66892L6.14332 0.752119L6.04612 0.890746L5.9768 1.01548V1.14022L6.08772 1.22342H6.47546C6.47546 1.22342 6.51706 1.19571 6.55902 1.22342C6.6002 1.25114 6.66951 1.30638 6.66951 1.30638L6.6974 1.38958L6.7806 1.61135V1.77769L6.71129 1.88861L6.68376 1.99952L6.71129 2.11043V2.38751L6.7806 2.45682V2.78949C6.7806 2.78949 6.84992 2.87269 6.87745 2.94176C6.90534 3.01108 6.87745 3.09428 6.87745 3.09428L7.01626 3.17748V3.3161H7.09945V3.41313H7.25197C7.25197 3.41313 7.33517 3.28839 7.36246 3.24679C7.39035 3.20519 7.57058 2.98342 7.57058 2.98342L7.66936 2.94182C7.66936 2.94182 7.7781 2.87269 7.83333 2.85886L7.889 2.84498C7.889 2.84498 8.111 2.73406 8.15255 2.70635C8.19373 2.67864 8.33254 2.58161 8.33254 2.58161L8.40186 2.47094L8.4987 2.41527L8.5819 2.38756C8.5819 2.38756 8.67911 2.37367 8.72071 2.35984C8.76231 2.34596 8.84509 2.31824 8.84509 2.31824L8.94229 2.22122V2.06895L9.15005 2.04123V1.95803L9.23324 1.88172V1.47284L9.31681 1.38989L9.31675 1.34792L9.45519 1.26473L9.52432 1.1677V0.987539L9.63524 0.807315L9.71844 0.724116L9.80163 0.682516L9.82216 0.664947C10.8788 0.927522 11.8474 1.41332 12.6768 2.06854H12.6379L12.5644 2.12397C12.4903 2.17939 12.4531 2.12397 12.4531 2.12397L12.3794 2.12403L12.2501 2.23494L12.1021 2.43816L12.0097 2.6365H11.8801L11.7696 2.84425C11.7696 2.84425 11.7144 2.86297 11.6587 2.91846C11.6034 2.9737 11.5482 3.21406 11.5482 3.21406H11.4555L11.3906 3.32473V3.41222L11.3262 3.50967V3.63894H11.4555L11.5664 3.74985L11.7144 3.84241H11.8067L11.9172 3.74985H12.2128L12.3056 3.67607L12.3425 3.54662L12.453 3.32485V3.17705L12.5086 3.05189H12.601L12.7058 2.84413L12.8229 3.05189V3.26942L12.8598 3.41233L12.8967 3.56503L12.8598 3.67594V3.74972H12.7058L12.6197 3.87917L12.4717 4.00862L12.2128 4.06404H11.9913L11.7328 4.04551H11.6219L11.5109 4.15642C11.5109 4.15642 11.4557 4.21185 11.3817 4.26709C11.3081 4.32252 11.2524 4.35947 11.2524 4.35947L11.1784 4.45203L11.1044 4.56294H11.0308L10.9011 4.72929L10.6983 4.78471L10.5315 4.85849L10.4136 4.89538L10.5132 4.98794L10.698 5.04337L10.7716 5.19117L10.9009 5.28355L10.864 5.43135L10.7164 5.46824C10.5684 5.50513 10.5132 5.48678 10.5132 5.48678L10.4136 5.46824C10.3144 5.44989 10.2729 5.41281 10.2729 5.41281L10.1988 5.43135L10.1061 5.61623L10.0233 5.65312V5.7269L10.0508 5.96701L10.0233 6.04079C9.99542 6.11457 10.1618 6.17024 10.1618 6.17024L10.4134 6.35476V6.42879L10.3097 6.55805L10.291 6.65043L10.0696 6.96523L9.92672 7.0945L9.73713 7.26085L9.51512 7.39011C9.51512 7.39011 9.42274 7.55646 9.3119 7.6117C9.20141 7.66712 9.3119 7.75968 9.3119 7.75968V7.9998V8.31612L9.45988 8.57248V8.66504L9.55226 8.75742V8.84979L9.73714 9.18247V9.27484L9.92673 9.40429L10.0144 9.45972H10.1989L10.3098 9.47825L10.4135 9.49679C10.5176 9.51532 10.5499 9.51532 10.6052 9.53368C10.6604 9.55203 10.9008 9.55203 10.9008 9.55203H11.1962L11.3258 9.60746L11.4738 9.82923L11.4922 9.90301L11.5846 10.1248L11.7325 10.4575V10.7531C11.7325 10.9009 11.6957 10.9194 11.6957 10.9194V11.0489L11.7325 11.4554L11.8066 11.7141L11.8435 12.0282L11.8618 12.25L11.9171 12.4718L11.9911 12.7119L12.0098 12.8228V13.0815L12.1203 13.3773L12.4344 13.4697L12.6376 13.359L12.8965 13.2296L13.007 13.1372C13.007 13.1372 13.1734 13.0263 13.2472 12.9338C13.3212 12.8414 13.4135 12.8045 13.4135 12.8045L13.4322 12.7119L13.5427 12.4163L13.5614 12.3054L13.6167 12.1576L13.7368 12.0467L13.82 11.8618L13.894 11.7512L13.968 11.6219C13.968 11.6219 13.968 11.4924 14.0049 11.4001C14.0418 11.3077 14.0232 11.1416 14.0232 11.1416V11.0491L14.0973 10.8644L14.1342 10.6795L14.2265 10.4763L14.2634 10.2729L14.3743 10.1805L14.4484 10.0698L14.5776 9.82972L14.7069 9.68192L14.7809 9.60789C14.7809 9.60789 14.9285 9.4232 14.9841 9.3121C15.0394 9.20143 15.0765 9.3121 15.0765 9.3121V9.21972L15.0029 9.12735L14.9473 8.9979H14.596L14.3376 8.81321L14.0787 8.5176L13.9498 8.31648L13.9129 8.26359L13.8942 8.1851L13.9499 7.93792V7.72315C13.9499 7.64937 13.9312 7.61224 13.9312 7.61224V7.40901L14.0421 7.33523L14.1526 7.50158C14.1526 7.50158 14.2082 7.7048 14.2266 7.76029C14.2453 7.81571 14.319 7.93816 14.319 7.93816H14.3746L14.393 8.31672L14.6331 8.64746L14.8732 8.53655H15.2614L15.3538 8.44417L15.5387 8.26376L15.5551 8.11107C15.5391 9.19797 15.2931 10.2297 14.863 11.1599H14.7902L14.6886 11.2524L14.6518 11.3262C14.6149 11.4 14.5408 11.5294 14.5408 11.5294L14.4116 11.6403L14.3171 11.8067C14.2226 11.973 14.2638 11.8621 14.3007 12.0468C14.3091 12.0888 14.3132 12.1202 14.3155 12.1452C12.9627 14.1986 10.6378 15.5577 8.00013 15.5577L8 15.5578ZM15.5572 8.03383V7.99984L15.558 7.99845V7.99984C15.558 8.01137 15.5572 8.02248 15.5572 8.03383Z" fill="black"/>
</svg>
