<svg width="71" height="71" viewBox="0 0 71 71" fill="none" xmlns="http://www.w3.org/2000/svg">
<circle cx="35.709" cy="35.6001" r="35" fill="#171717"/>
<path fill-rule="evenodd" clip-rule="evenodd" d="M41.3156 39.358L48.2897 46.3321C48.5349 46.5774 48.6725 46.91 48.6724 47.2568C48.6723 47.6036 48.5344 47.9362 48.2891 48.1813C48.0438 48.4264 47.7111 48.5641 47.3644 48.5639C47.0176 48.5638 46.685 48.4259 46.4399 48.1806L39.4658 41.2066C37.381 42.8213 34.7593 43.5812 32.1341 43.3316C29.509 43.0821 27.0774 41.8418 25.3342 39.8631C23.591 37.8844 22.6671 35.316 22.7504 32.6802C22.8337 30.0445 23.918 27.5395 25.7827 25.6749C27.6473 23.8102 30.1523 22.7259 32.788 22.6426C35.4237 22.5593 37.9922 23.4833 39.9709 25.2264C41.9496 26.9696 43.1899 29.4012 43.4394 32.0264C43.689 34.6516 42.9291 37.2732 41.3144 39.358H41.3156ZM33.1166 40.7853C35.1794 40.7853 37.1577 39.9658 38.6163 38.5072C40.0749 37.0486 40.8944 35.0703 40.8944 33.0075C40.8944 30.9447 40.0749 28.9664 38.6163 27.5078C37.1577 26.0492 35.1794 25.2297 33.1166 25.2297C31.0538 25.2297 29.0755 26.0492 27.6169 27.5078C26.1582 28.9664 25.3388 30.9447 25.3388 33.0075C25.3388 35.0703 26.1582 37.0486 27.6169 38.5072C29.0755 39.9658 31.0538 40.7853 33.1166 40.7853Z" fill="#FFFCF4"/>
</svg>
