<svg width="45" height="45" viewBox="0 0 45 45" fill="none" xmlns="http://www.w3.org/2000/svg">
<circle cx="22.5" cy="22.5" r="22.5" fill="#DDDDDD"/>
<path d="M17.2768 32.7639L33.2647 23.8107C33.4996 23.6792 33.6951 23.4874 33.8313 23.2551C33.9674 23.0229 34.0392 22.7585 34.0392 22.4893C34.0392 22.2201 33.9674 21.9557 33.8313 21.7235C33.6951 21.4912 33.4996 21.2994 33.2647 21.1679L17.2768 12.2146C17.0078 12.0639 16.6992 11.999 16.3923 12.0284C16.0853 12.0578 15.7947 12.1802 15.5592 12.3792C15.3237 12.5783 15.1546 12.8444 15.0744 13.1422C14.9943 13.4399 15.0069 13.755 15.1106 14.0454L18.1262 22.4892L15.1106 30.9333C15.0512 31.0986 15.0208 31.2729 15.0206 31.4486C15.0221 31.7123 15.0923 31.971 15.2243 32.1992C15.3563 32.4275 15.5455 32.6173 15.7733 32.7501C16.0011 32.8829 16.2595 32.954 16.5232 32.9564C16.7868 32.9589 17.0465 32.8925 17.2767 32.7639L17.2768 32.7639ZM19.464 23.2465L24.9881 23.2465C25.1889 23.2465 25.3815 23.1667 25.5235 23.0247C25.6655 22.8827 25.7453 22.6901 25.7453 22.4893C25.7453 22.2885 25.6655 22.0959 25.5235 21.9539C25.3815 21.8119 25.1889 21.7321 24.9881 21.7321L19.464 21.7321L16.5376 13.5364L32.5249 22.4893L16.5371 31.4418L19.464 23.2465Z" fill="#2C3E50"/>
</svg>
